<?xml version="1.0" encoding="utf-8"?>
<!-- Generator: Adobe Illustrator 21.0.2, SVG Export Plug-In . SVG Version: 6.00 Build 0)  -->
<svg version="1.1" id="Layer_1" xmlns="http://www.w3.org/2000/svg" xmlns:xlink="http://www.w3.org/1999/xlink" x="0px" y="0px"
	 viewBox="0 0 32 32" style="enable-background:new 0 0 32 32;" xml:space="preserve">
<style type="text/css">
	.st0{fill:#9CC420;}
</style>
<g>
	<path class="st0" d="M29.1,10.4c-1.6-3.7-4.3-6.4-8-8c-1.9-0.8-3.8-1.2-5.8-1.2c-2,0-4,0.4-5.8,1.2c-3.7,1.6-6.4,4.3-8,8
		c-0.8,1.9-1.2,3.8-1.2,5.8c0,2,0.4,4,1.2,5.9c1.6,3.7,4.3,6.4,8,8c1.9,0.8,3.8,1.2,5.8,1.2c2,0,4-0.4,5.8-1.2c3.7-1.6,6.4-4.3,8-8
		c0.8-1.9,1.2-3.8,1.2-5.9C30.3,14.2,29.9,12.3,29.1,10.4L29.1,10.4z M27.5,21.4c-0.7,1.6-1.6,3-2.8,4.2c-1.2,1.2-2.6,2.1-4.2,2.8
		c-1.6,0.7-3.3,1.1-5.1,1.1c-2.4,0-4.6-0.6-6.6-1.8c-2-1.2-3.6-2.8-4.8-4.8c-1.2-2-1.8-4.3-1.8-6.6c0-2.4,0.6-4.6,1.8-6.6
		C5,7.6,6.6,6,8.7,4.8c2-1.2,4.2-1.8,6.6-1.8c1.8,0,3.5,0.3,5.1,1.1c1.6,0.7,3,1.6,4.2,2.8c1.2,1.2,2.1,2.6,2.8,4.2
		c0.7,1.6,1.1,3.3,1.1,5.1C28.5,18,28.2,19.8,27.5,21.4L27.5,21.4z M27.5,21.4"/>
	<path class="st0" d="M22.7,12.6l-7.3,7.3l-7.5-7.3c-0.4-0.4-0.9-0.3-1.3,0c-0.3,0.3-0.3,0.9,0,1.3l8.2,8c0.3,0.3,0.9,0.4,1.3,0
		l7.9-8c0.2-0.2,0.3-0.4,0.3-0.6c0-0.3-0.1-0.5-0.3-0.6C23.7,12.2,23.1,12.2,22.7,12.6L22.7,12.6z M22.7,12.6"/>
</g>
</svg>
